{"asset":{"generator":"FBX2glTF v0.9.7","version":"2.0"},"scene":0,"buffers":[{"byteLength":1749304,"uri":"data:application/octet-stream;base64,"}],"bufferViews":[{"buffer":0,"byteLength":19152,"byteOffset":0,"target":34963},{"buffer":0,"byteLength":20508,"byteOffset":19152,"target":34962},{"buffer":0,"byteLength":20508,"byteOffset":39660,"target":34962},{"buffer":0,"byteLength":13672,"byteOffset":60168,"target":34962},{"buffer":0,"byteLength":13672,"byteOffset":73840,"target":34962},{"buffer":0,"byteLength":22536,"byteOffset":87512,"target":34963},{"buffer":0,"byteLength":33540,"byteOffset":110048,"target":34962},{"buffer":0,"byteLength":33540,"byteOffset":143588,"target":34962},{"buffer":0,"byteLength":22360,"byteOffset":177128,"target":34962},{"buffer":0,"byteLength":22360,"byteOffset":199488,"target":34962},{"buffer":0,"byteLength":70992,"byteOffset":221848,"target":34963},{"buffer":0,"byteLength":77652,"byteOffset":292840,"target":34962},{"buffer":0,"byteLength":77652,"byteOffset":370492,"target":34962},{"buffer":0,"byteLength":51768,"byteOffset":448144,"target":34962},{"buffer":0,"byteLength":51768,"byteOffset":499912,"target":34962},{"buffer":0,"byteLength":16800,"byteOffset":551680,"target":34963},{"buffer":0,"byteLength":17496,"byteOffset":568480,"target":34962},{"buffer":0,"byteLength":17496,"byteOffset":585976,"target":34962},{"buffer":0,"byteLength":11664,"byteOffset":603472,"target":34962},{"buffer":0,"byteLength":11664,"byteOffset":615136,"target":34962},{"buffer":0,"byteLength":28416,"byteOffset":626800,"target":34963},{"buffer":0,"byteLength":31824,"byteOffset":655216,"target":34962},{"buffer":0,"byteLength":31824,"byteOffset":687040,"target":34962},{"buffer":0,"byteLength":21216,"byteOffset":718864,"target":34962},{"buffer":0,"byteLength":21216,"byteOffset":740080,"target":34962},{"buffer":0,"byteLength":25704,"byteOffset":761296,"target":34963},{"buffer":0,"byteLength":30744,"byteOffset":787000,"target":34962},{"buffer":0,"byteLength":30744,"byteOffset":817744,"target":34962},{"buffer":0,"byteLength":20496,"byteOffset":848488,"target":34962},{"buffer":0,"byteLength":20496,"byteOffset":868984,"target":34962},{"buffer":0,"byteLength":110208,"byteOffset":889480,"target":34963},{"buffer":0,"byteLength":110208,"byteOffset":999688,"target":34962},{"buffer":0,"byteLength":110208,"byteOffset":1109896,"target":34962},{"buffer":0,"byteLength":73472,"byteOffset":1220104,"target":34962},{"buffer":0,"byteLength":73472,"byteOffset":1293576,"target":34962},{"buffer":0,"byteLength":69216,"byteOffset":1367048,"target":34963},{"buffer":0,"byteLength":69696,"byteOffset":1436264,"target":34962},{"buffer":0,"byteLength":69696,"byteOffset":1505960,"target":34962},{"buffer":0,"byteLength":46464,"byteOffset":1575656,"target":34962},{"buffer":0,"byteLength":46464,"byteOffset":1622120,"target":34962},{"buffer":0,"byteLength":17280,"byteOffset":1668584,"target":34963},{"buffer":0,"byteLength":19032,"byteOffset":1685864,"target":34962},{"buffer":0,"byteLength":19032,"byteOffset":1704896,"target":34962},{"buffer":0,"byteLength":12688,"byteOffset":1723928,"target":34962},{"buffer":0,"byteLength":12688,"byteOffset":1736616,"target":34962}],"scenes":[{"name":"Root Scene","nodes":[0]}],"accessors":[{"componentType":5123,"type":"SCALAR","count":9576,"bufferView":0,"byteOffset":0},{"componentType":5126,"type":"VEC3","count":1709,"bufferView":1,"byteOffset":0,"min":[-0.0405518375337124,-0.0405518338084221,-0.0272041000425816],"max":[0.0405518375337124,0.0405518338084221,0.0272041000425816]},{"componentType":5126,"type":"VEC3","count":1709,"bufferView":2,"byteOffset":0},{"componentType":5126,"type":"VEC2","count":1709,"bufferView":3,"byteOffset":0},{"componentType":5126,"type":"VEC2","count":1709,"bufferView":4,"byteOffset":0},{"componentType":5123,"type":"SCALAR","count":11268,"bufferView":5,"byteOffset":0},{"componentType":5126,"type":"VEC3","count":2795,"bufferView":6,"byteOffset":0,"min":[-0.155233383178711,-0.155233383178711,-0.374533116817474],"max":[0.155233383178711,0.155233383178711,0.374533027410507]},{"componentType":5126,"type":"VEC3","count":2795,"bufferView":7,"byteOffset":0},{"componentType":5126,"type":"VEC2","count":2795,"bufferView":8,"byteOffset":0},{"componentType":5126,"type":"VEC2","count":2795,"bufferView":9,"byteOffset":0},{"componentType":5123,"type":"SCALAR","count":35496,"bufferView":10,"byteOffset":0},{"componentType":5126,"type":"VEC3","count":6471,"bufferView":11,"byteOffset":0,"min":[-0.241611361503601,-0.241611316800117,-0.313016414642334],"max":[0.241611361503601,0.241611316800117,0.313016414642334]},{"componentType":5126,"type":"VEC3","count":6471,"bufferView":12,"byteOffset":0},{"componentType":5126,"type":"VEC2","count":6471,"bufferView":13,"byteOffset":0},{"componentType":5126,"type":"VEC2","count":6471,"bufferView":14,"byteOffset":0},{"componentType":5123,"type":"SCALAR","count":8400,"bufferView":15,"byteOffset":0},{"componentType":5126,"type":"VEC3","count":1458,"bufferView":16,"byteOffset":0,"min":[-0.0624811127781868,-0.0624811127781868,-0.0329061895608902],"max":[0.0624811127781868,0.0624811127781868,0.0329061895608902]},{"componentType":5126,"type":"VEC3","count":1458,"bufferView":17,"byteOffset":0},{"componentType":5126,"type":"VEC2","count":1458,"bufferView":18,"byteOffset":0},{"componentType":5126,"type":"VEC2","count":1458,"bufferView":19,"byteOffset":0},{"componentType":5123,"type":"SCALAR","count":14208,"bufferView":20,"byteOffset":0},{"componentType":5126,"type":"VEC3","count":2652,"bufferView":21,"byteOffset":0,"min":[-0.0682850256562233,-0.0682850033044815,-0.0469494611024857],"max":[0.0682850256562233,0.0682850033044815,0.0469494611024857]},{"componentType":5126,"type":"VEC3","count":2652,"bufferView":22,"byteOffset":0},{"componentType":5126,"type":"VEC2","count":2652,"bufferView":23,"byteOffset":0},{"componentType":5126,"type":"VEC2","count":2652,"bufferView":24,"byteOffset":0},{"componentType":5123,"type":"SCALAR","count":12852,"bufferView":25,"byteOffset":0},{"componentType":5126,"type":"VEC3","count":2562,"bufferView":26,"byteOffset":0,"min":[-0.0848618000745773,-0.0512164495885372,-0.0690998807549477],"max":[0.0848618000745773,0.0512164495885372,0.0690998807549477]},{"componentType":5126,"type":"VEC3","count":2562,"bufferView":27,"byteOffset":0},{"componentType":5126,"type":"VEC2","count":2562,"bufferView":28,"byteOffset":0},{"componentType":5126,"type":"VEC2","count":2562,"bufferView":29,"byteOffset":0},{"componentType":5123,"type":"SCALAR","count":55104,"bufferView":30,"byteOffset":0},{"componentType":5126,"type":"VEC3","count":9184,"bufferView":31,"byteOffset":0,"min":[-0.0481276884675026,-0.0481276884675026,-0.0410202443599701],"max":[0.0481276884675026,0.0481276884675026,0.0410201363265514]},{"componentType":5126,"type":"VEC3","count":9184,"bufferView":32,"byteOffset":0},{"componentType":5126,"type":"VEC2","count":9184,"bufferView":33,"byteOffset":0},{"componentType":5126,"type":"VEC2","count":9184,"bufferView":34,"byteOffset":0},{"componentType":5123,"type":"SCALAR","count":34608,"bufferView":35,"byteOffset":0},{"componentType":5126,"type":"VEC3","count":5808,"bufferView":36,"byteOffset":0,"min":[-0.0400784201920033,-0.040078416466713,-0.0378610491752625],"max":[0.040078416466713,0.0400784239172935,0.037854015827179]},{"componentType":5126,"type":"VEC3","count":5808,"bufferView":37,"byteOffset":0},{"componentType":5126,"type":"VEC2","count":5808,"bufferView":38,"byteOffset":0},{"componentType":5126,"type":"VEC2","count":5808,"bufferView":39,"byteOffset":0},{"componentType":5123,"type":"SCALAR","count":8640,"bufferView":40,"byteOffset":0},{"componentType":5126,"type":"VEC3","count":1586,"bufferView":41,"byteOffset":0,"min":[-0.00464883632957935,-0.00473356200382113,-0.00757666025310755],"max":[0.00464883632957935,0.00473356200382113,0.00757672125473619]},{"componentType":5126,"type":"VEC3","count":1586,"bufferView":42,"byteOffset":0},{"componentType":5126,"type":"VEC2","count":1586,"bufferView":43,"byteOffset":0},{"componentType":5126,"type":"VEC2","count":1586,"bufferView":44,"byteOffset":0}],"images":[{"name":"Buoy_Normal_Map.png","uri":"Buoy_Normal_Map.png"},{"name":"Buoy_DIffuse.png","uri":"Buoy_DIffuse.png"}],"samplers":[{}],"textures":[{"name":"Map #3","sampler":0,"source":0},{"name":"Map #1","sampler":0,"source":1}],"materials":[{"name":"orange_glass","alphaMode":"OPAQUE","extras":{"fromFBX":{"shadingModel":"Phong","isTruePBR":false}},"pbrMetallicRoughness":{"baseColorFactor":[0.00392156885936856,0.00392156885936856,0.00392156885936856,0],"metallicFactor":0.400000005960464,"roughnessFactor":0.0441510789096355}},{"name":"gold","alphaMode":"OPAQUE","extras":{"fromFBX":{"shadingModel":"Phong","isTruePBR":false}},"pbrMetallicRoughness":{"baseColorFactor":[0.0470588319003582,0.0313725508749485,0.0117647079750896,1],"metallicFactor":0.400000005960464,"roughnessFactor":0.074121005833149}},{"name":"aluminium_orange","alphaMode":"OPAQUE","extras":{"fromFBX":{"shadingModel":"Phong","isTruePBR":false}},"normalTexture":{"index":0,"texCoord":0},"pbrMetallicRoughness":{"baseColorTexture":{"index":1,"texCoord":0},"baseColorFactor":[1,1,1,1],"metallicFactor":0.400000005960464,"roughnessFactor":0.0441510789096355}}],"meshes":[{"name":"Object01","primitives":[{"material":2,"mode":4,"attributes":{"NORMAL":2,"POSITION":1,"TEXCOORD_0":3,"TEXCOORD_1":4},"indices":0}]},{"name":"Object02","primitives":[{"material":2,"mode":4,"attributes":{"NORMAL":7,"POSITION":6,"TEXCOORD_0":8,"TEXCOORD_1":9},"indices":5}]},{"name":"Line03","primitives":[{"material":2,"mode":4,"attributes":{"NORMAL":12,"POSITION":11,"TEXCOORD_0":13,"TEXCOORD_1":14},"indices":10}]},{"name":"Circle02","primitives":[{"material":2,"mode":4,"attributes":{"NORMAL":17,"POSITION":16,"TEXCOORD_0":18,"TEXCOORD_1":19},"indices":15}]},{"name":"Object03","primitives":[{"material":2,"mode":4,"attributes":{"NORMAL":22,"POSITION":21,"TEXCOORD_0":23,"TEXCOORD_1":24},"indices":20}]},{"name":"Rectangle02","primitives":[{"material":2,"mode":4,"attributes":{"NORMAL":27,"POSITION":26,"TEXCOORD_0":28,"TEXCOORD_1":29},"indices":25}]},{"name":"Circle03","primitives":[{"material":0,"mode":4,"attributes":{"NORMAL":32,"POSITION":31,"TEXCOORD_0":33,"TEXCOORD_1":34},"indices":30}]},{"name":"Line02","primitives":[{"material":1,"mode":4,"attributes":{"NORMAL":37,"POSITION":36,"TEXCOORD_0":38,"TEXCOORD_1":39},"indices":35}]},{"name":"Rectangle01","primitives":[{"material":1,"mode":4,"attributes":{"NORMAL":42,"POSITION":41,"TEXCOORD_0":43,"TEXCOORD_1":44},"indices":40}]}],"nodes":[{"name":"RootNode","translation":[0,0,0],"rotation":[0,0,0,1],"scale":[1,1,1],"children":[1]},{"name":"Buoy","translation":[0,0,0],"rotation":[-0.70710676908493,0,0,0.70710676908493],"scale":[1,1,1],"children":[2,3,4,5,6,7,8,9,10]},{"name":"Circle03","translation":[3.8146974468134e-9,-6.23751290618202e-8,1.37672257423401],"rotation":[0,0,0,1],"scale":[1,1,1],"mesh":6},{"name":"Line02","translation":[0,-3.02043972055799e-8,0.702910900115967],"rotation":[0,0,0,1],"scale":[1,1,1],"mesh":7},{"name":"Object01","translation":[0,-6.4849857039917e-8,1.30847299098969],"rotation":[0,0,0,1],"scale":[1,1,1],"mesh":0},{"name":"Object02","translation":[0,-6.08987207328937e-8,0.917678654193878],"rotation":[0,0,0,1],"scale":[1,1,1],"mesh":1},{"name":"Rectangle01","translation":[0.0000809190241852775,-0.0000206809036171762,0.745250999927521],"rotation":[0,0,0,1],"scale":[1,1,1],"mesh":8},{"name":"Line03","translation":[0,0,0.313016384840012],"rotation":[0,0,0,1],"scale":[1,1,1],"mesh":2},{"name":"Circle02","translation":[0,-5.66530822254663e-8,1.43901669979095],"rotation":[0,0,0,1],"scale":[1,1,1],"mesh":3},{"name":"Object03","translation":[0,-7.61575122965041e-8,1.02210736274719],"rotation":[0,0,0,1],"scale":[1,1,1],"mesh":4},{"name":"Rectangle02","translation":[0,-3.41958390492891e-8,0.720388472080231],"rotation":[0,0,0,1],"scale":[1,1,1],"mesh":5}]}