{"asset":{"generator":"FBX2glTF v0.9.7","version":"2.0"},"scene":0,"buffers":[{"byteLength":2743276,"uri":"data:application/octet-stream;base64,"}],"bufferViews":[{"buffer":0,"byteLength":322920,"byteOffset":0,"target":34963},{"buffer":0,"byteLength":560460,"byteOffset":322920,"target":34962},{"buffer":0,"byteLength":560460,"byteOffset":883380,"target":34962},{"buffer":0,"byteLength":373640,"byteOffset":1443840,"target":34962},{"buffer":0,"byteLength":373640,"byteOffset":1817480,"target":34962},{"buffer":0,"byteLength":121554,"byteOffset":2191120,"target":34963},{"buffer":0,"byteLength":129180,"byteOffset":2312676,"target":34962},{"buffer":0,"byteLength":129180,"byteOffset":2441856,"target":34962},{"buffer":0,"byteLength":86120,"byteOffset":2571036,"target":34962},{"buffer":0,"byteLength":86120,"byteOffset":2657156,"target":34962}],"scenes":[{"name":"Root Scene","nodes":[0]}],"accessors":[{"componentType":5123,"type":"SCALAR","count":161460,"bufferView":0,"byteOffset":0},{"componentType":5126,"type":"VEC3","count":46705,"bufferView":1,"byteOffset":0,"min":[-0.0475832782685757,-0.0226426124572754,-0.0788649171590805],"max":[0.0475832782685757,0.0444055870175362,0.103039719164371]},{"componentType":5126,"type":"VEC3","count":46705,"bufferView":2,"byteOffset":0},{"componentType":5126,"type":"VEC2","count":46705,"bufferView":3,"byteOffset":0},{"componentType":5126,"type":"VEC2","count":46705,"bufferView":4,"byteOffset":0},{"componentType":5123,"type":"SCALAR","count":60777,"bufferView":5,"byteOffset":0},{"componentType":5126,"type":"VEC3","count":10765,"bufferView":6,"byteOffset":0,"min":[-0.0483395718038082,-0.0107772797346115,-0.10388757288456],"max":[0.0488252379000187,0.0325057469308376,0.103165470063686]},{"componentType":5126,"type":"VEC3","count":10765,"bufferView":7,"byteOffset":0},{"componentType":5126,"type":"VEC2","count":10765,"bufferView":8,"byteOffset":0},{"componentType":5126,"type":"VEC2","count":10765,"bufferView":9,"byteOffset":0}],"images":[{"name":"Rescue Boat_Normal.jpg","uri":"Rescue Boat_Normal.jpg"},{"name":"Rescue Boat_BaseColor.jpg","uri":"Rescue Boat_BaseColor.jpg"}],"samplers":[{}],"textures":[{"name":"file2","sampler":0,"source":0},{"name":"file1","sampler":0,"source":1}],"materials":[{"name":"Rescue_Boat:Assault_Boat_MAT","alphaMode":"OPAQUE","extras":{"fromFBX":{"shadingModel":"Phong","isTruePBR":false}},"normalTexture":{"index":0,"texCoord":0},"pbrMetallicRoughness":{"baseColorTexture":{"index":1,"texCoord":0},"baseColorFactor":[0.800000011920929,0.800000011920929,0.800000011920929,1],"metallicFactor":0.400000005960464,"roughnessFactor":0.301511347293854}}],"meshes":[{"name":"Rescue_Boat:TOOLS","primitives":[{"material":0,"mode":4,"attributes":{"NORMAL":2,"POSITION":1,"TEXCOORD_0":3,"TEXCOORD_1":4},"indices":0}]},{"name":"Rescue_Boat:BOAT","primitives":[{"material":0,"mode":4,"attributes":{"NORMAL":7,"POSITION":6,"TEXCOORD_0":8,"TEXCOORD_1":9},"indices":5}]}],"nodes":[{"name":"RootNode","translation":[0,0,0],"rotation":[0,0,0,1],"scale":[1,1,1],"children":[1]},{"name":"Rescue_Boat:RESCUE_BOAT_GROUP","translation":[0,0,0],"rotation":[0,0,0,1],"scale":[1,1,1],"children":[2,3]},{"name":"Rescue_Boat:TOOLS","translation":[0,0,0],"rotation":[0,0,0,1],"scale":[1,1,1],"mesh":0},{"name":"Rescue_Boat:BOAT","translation":[0,0,0],"rotation":[0,0,0,1],"scale":[1,1,1],"mesh":1}]}