{"asset":{"generator":"FBX2glTF v0.9.7","version":"2.0"},"scene":0,"buffers":[{"byteLength":1021548,"uri":"data:application/octet-stream;base64,"}],"bufferViews":[{"buffer":0,"byteLength":306444,"byteOffset":0,"target":34963},{"buffer":0,"byteLength":307380,"byteOffset":306444,"target":34962},{"buffer":0,"byteLength":307380,"byteOffset":613824,"target":34962},{"buffer":0,"byteLength":33120,"byteOffset":921204,"target":34963},{"buffer":0,"byteLength":33612,"byteOffset":954324,"target":34962},{"buffer":0,"byteLength":33612,"byteOffset":987936,"target":34962}],"scenes":[{"name":"Root Scene","nodes":[0]}],"accessors":[{"componentType":5123,"type":"SCALAR","count":153222,"bufferView":0,"byteOffset":0},{"componentType":5126,"type":"VEC3","count":25615,"bufferView":1,"byteOffset":0,"min":[-0.796341180801392,-0.336106508970261,-0.5],"max":[0.796341180801392,0.336106508970261,0.5]},{"componentType":5126,"type":"VEC3","count":25615,"bufferView":2,"byteOffset":0},{"componentType":5123,"type":"SCALAR","count":16560,"bufferView":3,"byteOffset":0},{"componentType":5126,"type":"VEC3","count":2801,"bufferView":4,"byteOffset":0,"min":[-0.0633690804243088,-0.0633691996335983,0.46886470913887],"max":[0.0633690804243088,0.0633689686655998,0.497189998626709]},{"componentType":5126,"type":"VEC3","count":2801,"bufferView":5,"byteOffset":0}],"samplers":[{}],"materials":[{"name":"mat_red","alphaMode":"OPAQUE","extras":{"fromFBX":{"shadingModel":"Phong","isTruePBR":false}},"pbrMetallicRoughness":{"baseColorFactor":[0.972549140453339,0.0823529437184334,0.0156862754374743,1],"metallicFactor":0.400000005960464,"roughnessFactor":0.124034732580185}},{"name":"glossy_red","alphaMode":"OPAQUE","extras":{"fromFBX":{"shadingModel":"Phong","isTruePBR":false}},"pbrMetallicRoughness":{"baseColorFactor":[0.972549140453339,0.0823529437184334,0.0156862754374743,1],"metallicFactor":0.400000005960464,"roughnessFactor":0.0880451053380966}}],"meshes":[{"name":"Portable_Traffic_Barrier01","primitives":[{"material":0,"mode":4,"attributes":{"NORMAL":2,"POSITION":1},"indices":0}]},{"name":"Object01","primitives":[{"material":1,"mode":4,"attributes":{"NORMAL":5,"POSITION":4},"indices":3}]}],"nodes":[{"name":"RootNode","translation":[0,0,0],"rotation":[0,0,0,1],"scale":[1,1,1],"children":[1]},{"name":"Portable_Traffic_Barrier","translation":[0,0,0],"rotation":[-0.70710676908493,0,0,0.70710676908493],"scale":[1,1,1],"children":[2,3]},{"name":"Portable_Traffic_Barrier01","translation":[0,0,0.5],"rotation":[0,0,0,1],"scale":[1,1,1],"mesh":0},{"name":"Object01","translation":[-4.54747340722069e-15,-4.54747340722069e-15,0.5],"rotation":[3.5527136788005e-15,1.2621775988169e-29,3.55271410231697e-15,1],"scale":[1,1,1],"mesh":1}]}